<mxfile host="app.diagrams.net" modified="2023-10-29T10:34:50.530Z" agent="Mozilla/5.0 (Windows NT 10.0; Win64; x64) AppleWebKit/537.36 (KHTML, like Gecko) Chrome/116.0.0.0 Safari/537.36 OPR/102.0.0.0" etag="t599ZuVEjZh9J5zeMJRC" version="22.0.8" type="device">
  <diagram name="Страница — 1" id="MQ_Sf9FGrjqhgtXzqlnl">
    <mxGraphModel dx="1261" dy="739" grid="1" gridSize="10" guides="1" tooltips="1" connect="1" arrows="1" fold="1" page="1" pageScale="1" pageWidth="1169" pageHeight="827" math="0" shadow="0">
      <root>
        <mxCell id="0" />
        <mxCell id="1" parent="0" />
        <mxCell id="ekhMy3ZcBeFL5dOao0uK-27" value="" style="endArrow=classic;html=1;rounded=0;exitX=1;exitY=0.5;exitDx=0;exitDy=0;entryX=0;entryY=0.5;entryDx=0;entryDy=0;" edge="1" parent="1">
          <mxGeometry width="50" height="50" relative="1" as="geometry">
            <mxPoint x="409.99999999999864" y="455" as="sourcePoint" />
            <mxPoint x="479.99999999999864" y="455" as="targetPoint" />
          </mxGeometry>
        </mxCell>
        <mxCell id="ekhMy3ZcBeFL5dOao0uK-28" value="" style="ellipse;whiteSpace=wrap;html=1;aspect=fixed;" vertex="1" parent="1">
          <mxGeometry x="380" y="437.5" width="35" height="35" as="geometry" />
        </mxCell>
        <mxCell id="ekhMy3ZcBeFL5dOao0uK-44" value="" style="endArrow=classic;html=1;rounded=0;exitX=0.5;exitY=0;exitDx=0;exitDy=0;entryX=0;entryY=1;entryDx=0;entryDy=0;" edge="1" parent="1">
          <mxGeometry width="50" height="50" relative="1" as="geometry">
            <mxPoint x="545" y="390" as="sourcePoint" />
            <mxPoint x="709.0380592228753" y="190.9619407771247" as="targetPoint" />
          </mxGeometry>
        </mxCell>
        <mxCell id="ekhMy3ZcBeFL5dOao0uK-45" value="" style="endArrow=classic;html=1;rounded=0;exitX=1;exitY=0;exitDx=0;exitDy=0;entryX=0;entryY=1;entryDx=0;entryDy=0;" edge="1" parent="1">
          <mxGeometry width="50" height="50" relative="1" as="geometry">
            <mxPoint x="590.9619407771286" y="409.03805922287154" as="sourcePoint" />
            <mxPoint x="709.0380592228753" y="350.9619407771247" as="targetPoint" />
          </mxGeometry>
        </mxCell>
        <mxCell id="ekhMy3ZcBeFL5dOao0uK-46" value="" style="endArrow=classic;html=1;rounded=0;exitX=1;exitY=0.5;exitDx=0;exitDy=0;entryX=0;entryY=0.5;entryDx=0;entryDy=0;" edge="1" parent="1">
          <mxGeometry width="50" height="50" relative="1" as="geometry">
            <mxPoint x="610.0000000000014" y="455" as="sourcePoint" />
            <mxPoint x="690.0000000000014" y="455" as="targetPoint" />
          </mxGeometry>
        </mxCell>
        <mxCell id="ekhMy3ZcBeFL5dOao0uK-47" value="" style="ellipse;whiteSpace=wrap;html=1;aspect=fixed;" vertex="1" parent="1">
          <mxGeometry x="920" y="437.5" width="35" height="35" as="geometry" />
        </mxCell>
        <mxCell id="ekhMy3ZcBeFL5dOao0uK-48" value="" style="endArrow=classic;html=1;rounded=0;exitX=1;exitY=1;exitDx=0;exitDy=0;entryX=0;entryY=0;entryDx=0;entryDy=0;" edge="1" parent="1" target="ekhMy3ZcBeFL5dOao0uK-47">
          <mxGeometry width="50" height="50" relative="1" as="geometry">
            <mxPoint x="800.9619407771243" y="350.96194077712437" as="sourcePoint" />
            <mxPoint x="720" y="280" as="targetPoint" />
          </mxGeometry>
        </mxCell>
        <mxCell id="ekhMy3ZcBeFL5dOao0uK-49" value="" style="endArrow=classic;html=1;rounded=0;exitX=1;exitY=1;exitDx=0;exitDy=0;entryX=0.5;entryY=0;entryDx=0;entryDy=0;" edge="1" parent="1" target="ekhMy3ZcBeFL5dOao0uK-47">
          <mxGeometry width="50" height="50" relative="1" as="geometry">
            <mxPoint x="800.9619407771243" y="190.96194077712437" as="sourcePoint" />
            <mxPoint x="720" y="280" as="targetPoint" />
          </mxGeometry>
        </mxCell>
        <mxCell id="ekhMy3ZcBeFL5dOao0uK-50" value="" style="endArrow=classic;html=1;rounded=0;exitX=1;exitY=0.5;exitDx=0;exitDy=0;entryX=0;entryY=0.5;entryDx=0;entryDy=0;" edge="1" parent="1" target="ekhMy3ZcBeFL5dOao0uK-47">
          <mxGeometry width="50" height="50" relative="1" as="geometry">
            <mxPoint x="819.9999999999984" y="455" as="sourcePoint" />
            <mxPoint x="720" y="380" as="targetPoint" />
          </mxGeometry>
        </mxCell>
        <mxCell id="ekhMy3ZcBeFL5dOao0uK-58" value="" style="endArrow=classic;html=1;rounded=0;exitX=1;exitY=1;exitDx=0;exitDy=0;entryX=0;entryY=0;entryDx=0;entryDy=0;" edge="1" parent="1">
          <mxGeometry width="50" height="50" relative="1" as="geometry">
            <mxPoint x="590.9619407771286" y="500.9619407771286" as="sourcePoint" />
            <mxPoint x="709.0380592228753" y="559.0380592228754" as="targetPoint" />
          </mxGeometry>
        </mxCell>
        <mxCell id="ekhMy3ZcBeFL5dOao0uK-59" value="" style="endArrow=classic;html=1;rounded=0;exitX=1;exitY=0;exitDx=0;exitDy=0;entryX=0;entryY=1;entryDx=0;entryDy=0;" edge="1" parent="1" target="ekhMy3ZcBeFL5dOao0uK-47">
          <mxGeometry width="50" height="50" relative="1" as="geometry">
            <mxPoint x="800.9619407771243" y="559.0380592228757" as="sourcePoint" />
            <mxPoint x="720" y="480" as="targetPoint" />
          </mxGeometry>
        </mxCell>
        <mxCell id="ekhMy3ZcBeFL5dOao0uK-67" value="" style="endArrow=classic;html=1;rounded=0;exitX=0.5;exitY=1;exitDx=0;exitDy=0;entryX=0;entryY=0;entryDx=0;entryDy=0;" edge="1" parent="1">
          <mxGeometry width="50" height="50" relative="1" as="geometry">
            <mxPoint x="545" y="520" as="sourcePoint" />
            <mxPoint x="709.0380592228753" y="709.0380592228753" as="targetPoint" />
          </mxGeometry>
        </mxCell>
        <mxCell id="ekhMy3ZcBeFL5dOao0uK-68" value="" style="endArrow=classic;html=1;rounded=0;exitX=1;exitY=0;exitDx=0;exitDy=0;entryX=0.5;entryY=1;entryDx=0;entryDy=0;" edge="1" parent="1" target="ekhMy3ZcBeFL5dOao0uK-47">
          <mxGeometry width="50" height="50" relative="1" as="geometry">
            <mxPoint x="800.9619407771243" y="709.0380592228757" as="sourcePoint" />
            <mxPoint x="750" y="550" as="targetPoint" />
          </mxGeometry>
        </mxCell>
        <mxCell id="ekhMy3ZcBeFL5dOao0uK-78" value="" style="ellipse;whiteSpace=wrap;html=1;aspect=fixed;" vertex="1" parent="1">
          <mxGeometry x="480" y="390" width="130" height="130" as="geometry" />
        </mxCell>
        <mxCell id="ekhMy3ZcBeFL5dOao0uK-79" value="" style="endArrow=none;html=1;rounded=0;exitX=0;exitY=0.5;exitDx=0;exitDy=0;entryX=1;entryY=0.5;entryDx=0;entryDy=0;" edge="1" parent="1" source="ekhMy3ZcBeFL5dOao0uK-78" target="ekhMy3ZcBeFL5dOao0uK-78">
          <mxGeometry width="50" height="50" relative="1" as="geometry">
            <mxPoint x="570" y="500" as="sourcePoint" />
            <mxPoint x="620" y="450" as="targetPoint" />
          </mxGeometry>
        </mxCell>
        <mxCell id="ekhMy3ZcBeFL5dOao0uK-80" value="" style="endArrow=none;html=1;rounded=0;exitX=0.5;exitY=1;exitDx=0;exitDy=0;entryX=0.5;entryY=0;entryDx=0;entryDy=0;" edge="1" parent="1" source="ekhMy3ZcBeFL5dOao0uK-78" target="ekhMy3ZcBeFL5dOao0uK-78">
          <mxGeometry width="50" height="50" relative="1" as="geometry">
            <mxPoint x="570" y="500" as="sourcePoint" />
            <mxPoint x="545" y="455" as="targetPoint" />
          </mxGeometry>
        </mxCell>
        <mxCell id="ekhMy3ZcBeFL5dOao0uK-81" value="&lt;span style=&quot;font-size: 24px;&quot;&gt;П0&lt;/span&gt;" style="text;html=1;strokeColor=none;fillColor=none;align=center;verticalAlign=middle;whiteSpace=wrap;rounded=0;" vertex="1" parent="1">
          <mxGeometry x="500" y="410" width="40" height="40" as="geometry" />
        </mxCell>
        <mxCell id="ekhMy3ZcBeFL5dOao0uK-82" value="&lt;font style=&quot;font-size: 18px;&quot;&gt;14610&lt;/font&gt;" style="text;html=1;strokeColor=none;fillColor=none;align=left;verticalAlign=middle;whiteSpace=wrap;rounded=0;" vertex="1" parent="1">
          <mxGeometry x="550" y="460" width="60" height="30" as="geometry" />
        </mxCell>
        <mxCell id="ekhMy3ZcBeFL5dOao0uK-84" value="&lt;span style=&quot;font-size: 24px;&quot;&gt;-&lt;/span&gt;" style="text;html=1;strokeColor=none;fillColor=none;align=center;verticalAlign=middle;whiteSpace=wrap;rounded=0;" vertex="1" parent="1">
          <mxGeometry x="550" y="410" width="40" height="40" as="geometry" />
        </mxCell>
        <mxCell id="ekhMy3ZcBeFL5dOao0uK-85" value="" style="ellipse;whiteSpace=wrap;html=1;aspect=fixed;" vertex="1" parent="1">
          <mxGeometry x="690" y="390" width="130" height="130" as="geometry" />
        </mxCell>
        <mxCell id="ekhMy3ZcBeFL5dOao0uK-86" value="" style="endArrow=none;html=1;rounded=0;exitX=0;exitY=0.5;exitDx=0;exitDy=0;entryX=1;entryY=0.5;entryDx=0;entryDy=0;" edge="1" parent="1" source="ekhMy3ZcBeFL5dOao0uK-85" target="ekhMy3ZcBeFL5dOao0uK-85">
          <mxGeometry width="50" height="50" relative="1" as="geometry">
            <mxPoint x="780" y="500" as="sourcePoint" />
            <mxPoint x="830" y="450" as="targetPoint" />
          </mxGeometry>
        </mxCell>
        <mxCell id="ekhMy3ZcBeFL5dOao0uK-87" value="" style="endArrow=none;html=1;rounded=0;exitX=0.5;exitY=1;exitDx=0;exitDy=0;entryX=0.5;entryY=0;entryDx=0;entryDy=0;" edge="1" parent="1" source="ekhMy3ZcBeFL5dOao0uK-85" target="ekhMy3ZcBeFL5dOao0uK-85">
          <mxGeometry width="50" height="50" relative="1" as="geometry">
            <mxPoint x="780" y="500" as="sourcePoint" />
            <mxPoint x="755" y="455" as="targetPoint" />
          </mxGeometry>
        </mxCell>
        <mxCell id="ekhMy3ZcBeFL5dOao0uK-88" value="&lt;span style=&quot;font-size: 24px;&quot;&gt;П3&lt;/span&gt;" style="text;html=1;strokeColor=none;fillColor=none;align=center;verticalAlign=middle;whiteSpace=wrap;rounded=0;" vertex="1" parent="1">
          <mxGeometry x="710" y="410" width="40" height="40" as="geometry" />
        </mxCell>
        <mxCell id="ekhMy3ZcBeFL5dOao0uK-89" value="&lt;font style=&quot;font-size: 18px;&quot;&gt;16500&lt;/font&gt;" style="text;html=1;strokeColor=none;fillColor=none;align=left;verticalAlign=middle;whiteSpace=wrap;rounded=0;" vertex="1" parent="1">
          <mxGeometry x="760" y="460" width="60" height="30" as="geometry" />
        </mxCell>
        <mxCell id="ekhMy3ZcBeFL5dOao0uK-90" value="&lt;span style=&quot;font-size: 24px;&quot;&gt;21&lt;br&gt;&lt;/span&gt;" style="text;html=1;strokeColor=none;fillColor=none;align=center;verticalAlign=middle;whiteSpace=wrap;rounded=0;" vertex="1" parent="1">
          <mxGeometry x="760" y="410" width="40" height="40" as="geometry" />
        </mxCell>
        <mxCell id="ekhMy3ZcBeFL5dOao0uK-91" value="" style="ellipse;whiteSpace=wrap;html=1;aspect=fixed;" vertex="1" parent="1">
          <mxGeometry x="690" y="240" width="130" height="130" as="geometry" />
        </mxCell>
        <mxCell id="ekhMy3ZcBeFL5dOao0uK-92" value="" style="endArrow=none;html=1;rounded=0;exitX=0;exitY=0.5;exitDx=0;exitDy=0;entryX=1;entryY=0.5;entryDx=0;entryDy=0;" edge="1" parent="1" source="ekhMy3ZcBeFL5dOao0uK-91" target="ekhMy3ZcBeFL5dOao0uK-91">
          <mxGeometry width="50" height="50" relative="1" as="geometry">
            <mxPoint x="780" y="350" as="sourcePoint" />
            <mxPoint x="830" y="300" as="targetPoint" />
          </mxGeometry>
        </mxCell>
        <mxCell id="ekhMy3ZcBeFL5dOao0uK-93" value="" style="endArrow=none;html=1;rounded=0;exitX=0.5;exitY=1;exitDx=0;exitDy=0;entryX=0.5;entryY=0;entryDx=0;entryDy=0;" edge="1" parent="1" source="ekhMy3ZcBeFL5dOao0uK-91" target="ekhMy3ZcBeFL5dOao0uK-91">
          <mxGeometry width="50" height="50" relative="1" as="geometry">
            <mxPoint x="780" y="350" as="sourcePoint" />
            <mxPoint x="755" y="305" as="targetPoint" />
          </mxGeometry>
        </mxCell>
        <mxCell id="ekhMy3ZcBeFL5dOao0uK-94" value="&lt;span style=&quot;font-size: 24px;&quot;&gt;П2&lt;/span&gt;" style="text;html=1;strokeColor=none;fillColor=none;align=center;verticalAlign=middle;whiteSpace=wrap;rounded=0;" vertex="1" parent="1">
          <mxGeometry x="710" y="260" width="40" height="40" as="geometry" />
        </mxCell>
        <mxCell id="ekhMy3ZcBeFL5dOao0uK-95" value="&lt;font style=&quot;font-size: 18px;&quot;&gt;8177&lt;/font&gt;" style="text;html=1;strokeColor=none;fillColor=none;align=left;verticalAlign=middle;whiteSpace=wrap;rounded=0;" vertex="1" parent="1">
          <mxGeometry x="760" y="310" width="60" height="30" as="geometry" />
        </mxCell>
        <mxCell id="ekhMy3ZcBeFL5dOao0uK-96" value="&lt;span style=&quot;font-size: 24px;&quot;&gt;21&lt;/span&gt;" style="text;html=1;strokeColor=none;fillColor=none;align=center;verticalAlign=middle;whiteSpace=wrap;rounded=0;" vertex="1" parent="1">
          <mxGeometry x="760" y="260" width="40" height="40" as="geometry" />
        </mxCell>
        <mxCell id="ekhMy3ZcBeFL5dOao0uK-97" value="" style="ellipse;whiteSpace=wrap;html=1;aspect=fixed;" vertex="1" parent="1">
          <mxGeometry x="690" y="80" width="130" height="130" as="geometry" />
        </mxCell>
        <mxCell id="ekhMy3ZcBeFL5dOao0uK-98" value="" style="endArrow=none;html=1;rounded=0;exitX=0;exitY=0.5;exitDx=0;exitDy=0;entryX=1;entryY=0.5;entryDx=0;entryDy=0;" edge="1" parent="1" source="ekhMy3ZcBeFL5dOao0uK-97" target="ekhMy3ZcBeFL5dOao0uK-97">
          <mxGeometry width="50" height="50" relative="1" as="geometry">
            <mxPoint x="780" y="190" as="sourcePoint" />
            <mxPoint x="830" y="140" as="targetPoint" />
          </mxGeometry>
        </mxCell>
        <mxCell id="ekhMy3ZcBeFL5dOao0uK-99" value="" style="endArrow=none;html=1;rounded=0;exitX=0.5;exitY=1;exitDx=0;exitDy=0;entryX=0.5;entryY=0;entryDx=0;entryDy=0;" edge="1" parent="1" source="ekhMy3ZcBeFL5dOao0uK-97" target="ekhMy3ZcBeFL5dOao0uK-97">
          <mxGeometry width="50" height="50" relative="1" as="geometry">
            <mxPoint x="780" y="190" as="sourcePoint" />
            <mxPoint x="755" y="145" as="targetPoint" />
          </mxGeometry>
        </mxCell>
        <mxCell id="ekhMy3ZcBeFL5dOao0uK-100" value="&lt;span style=&quot;font-size: 24px;&quot;&gt;П1&lt;/span&gt;" style="text;html=1;strokeColor=none;fillColor=none;align=center;verticalAlign=middle;whiteSpace=wrap;rounded=0;" vertex="1" parent="1">
          <mxGeometry x="710" y="100" width="40" height="40" as="geometry" />
        </mxCell>
        <mxCell id="ekhMy3ZcBeFL5dOao0uK-101" value="&lt;font style=&quot;font-size: 18px;&quot;&gt;20142&lt;/font&gt;" style="text;html=1;strokeColor=none;fillColor=none;align=left;verticalAlign=middle;whiteSpace=wrap;rounded=0;" vertex="1" parent="1">
          <mxGeometry x="760" y="150" width="60" height="30" as="geometry" />
        </mxCell>
        <mxCell id="ekhMy3ZcBeFL5dOao0uK-102" value="&lt;span style=&quot;font-size: 24px;&quot;&gt;23&lt;br&gt;&lt;/span&gt;" style="text;html=1;strokeColor=none;fillColor=none;align=center;verticalAlign=middle;whiteSpace=wrap;rounded=0;" vertex="1" parent="1">
          <mxGeometry x="760" y="100" width="40" height="40" as="geometry" />
        </mxCell>
        <mxCell id="ekhMy3ZcBeFL5dOao0uK-103" value="" style="ellipse;whiteSpace=wrap;html=1;aspect=fixed;" vertex="1" parent="1">
          <mxGeometry x="690" y="540" width="130" height="130" as="geometry" />
        </mxCell>
        <mxCell id="ekhMy3ZcBeFL5dOao0uK-104" value="" style="endArrow=none;html=1;rounded=0;exitX=0;exitY=0.5;exitDx=0;exitDy=0;entryX=1;entryY=0.5;entryDx=0;entryDy=0;" edge="1" parent="1" source="ekhMy3ZcBeFL5dOao0uK-103" target="ekhMy3ZcBeFL5dOao0uK-103">
          <mxGeometry width="50" height="50" relative="1" as="geometry">
            <mxPoint x="780" y="650" as="sourcePoint" />
            <mxPoint x="830" y="600" as="targetPoint" />
          </mxGeometry>
        </mxCell>
        <mxCell id="ekhMy3ZcBeFL5dOao0uK-105" value="" style="endArrow=none;html=1;rounded=0;exitX=0.5;exitY=1;exitDx=0;exitDy=0;entryX=0.5;entryY=0;entryDx=0;entryDy=0;" edge="1" parent="1" source="ekhMy3ZcBeFL5dOao0uK-103" target="ekhMy3ZcBeFL5dOao0uK-103">
          <mxGeometry width="50" height="50" relative="1" as="geometry">
            <mxPoint x="780" y="650" as="sourcePoint" />
            <mxPoint x="755" y="605" as="targetPoint" />
          </mxGeometry>
        </mxCell>
        <mxCell id="ekhMy3ZcBeFL5dOao0uK-106" value="&lt;span style=&quot;font-size: 24px;&quot;&gt;П4&lt;/span&gt;" style="text;html=1;strokeColor=none;fillColor=none;align=center;verticalAlign=middle;whiteSpace=wrap;rounded=0;" vertex="1" parent="1">
          <mxGeometry x="710" y="560" width="40" height="40" as="geometry" />
        </mxCell>
        <mxCell id="ekhMy3ZcBeFL5dOao0uK-107" value="&lt;font style=&quot;font-size: 18px;&quot;&gt;10451&lt;/font&gt;" style="text;html=1;strokeColor=none;fillColor=none;align=left;verticalAlign=middle;whiteSpace=wrap;rounded=0;" vertex="1" parent="1">
          <mxGeometry x="760" y="610" width="60" height="30" as="geometry" />
        </mxCell>
        <mxCell id="ekhMy3ZcBeFL5dOao0uK-108" value="&lt;span style=&quot;font-size: 24px;&quot;&gt;22&lt;/span&gt;" style="text;html=1;strokeColor=none;fillColor=none;align=center;verticalAlign=middle;whiteSpace=wrap;rounded=0;" vertex="1" parent="1">
          <mxGeometry x="760" y="560" width="40" height="40" as="geometry" />
        </mxCell>
        <mxCell id="ekhMy3ZcBeFL5dOao0uK-109" value="" style="ellipse;whiteSpace=wrap;html=1;aspect=fixed;" vertex="1" parent="1">
          <mxGeometry x="690" y="690" width="130" height="130" as="geometry" />
        </mxCell>
        <mxCell id="ekhMy3ZcBeFL5dOao0uK-110" value="" style="endArrow=none;html=1;rounded=0;exitX=0;exitY=0.5;exitDx=0;exitDy=0;entryX=1;entryY=0.5;entryDx=0;entryDy=0;" edge="1" parent="1" source="ekhMy3ZcBeFL5dOao0uK-109" target="ekhMy3ZcBeFL5dOao0uK-109">
          <mxGeometry width="50" height="50" relative="1" as="geometry">
            <mxPoint x="780" y="800" as="sourcePoint" />
            <mxPoint x="830" y="750" as="targetPoint" />
          </mxGeometry>
        </mxCell>
        <mxCell id="ekhMy3ZcBeFL5dOao0uK-111" value="" style="endArrow=none;html=1;rounded=0;exitX=0.5;exitY=1;exitDx=0;exitDy=0;entryX=0.5;entryY=0;entryDx=0;entryDy=0;" edge="1" parent="1" source="ekhMy3ZcBeFL5dOao0uK-109" target="ekhMy3ZcBeFL5dOao0uK-109">
          <mxGeometry width="50" height="50" relative="1" as="geometry">
            <mxPoint x="780" y="800" as="sourcePoint" />
            <mxPoint x="755" y="755" as="targetPoint" />
          </mxGeometry>
        </mxCell>
        <mxCell id="ekhMy3ZcBeFL5dOao0uK-112" value="&lt;span style=&quot;font-size: 24px;&quot;&gt;П5&lt;/span&gt;" style="text;html=1;strokeColor=none;fillColor=none;align=center;verticalAlign=middle;whiteSpace=wrap;rounded=0;" vertex="1" parent="1">
          <mxGeometry x="710" y="710" width="40" height="40" as="geometry" />
        </mxCell>
        <mxCell id="ekhMy3ZcBeFL5dOao0uK-113" value="&lt;font style=&quot;font-size: 18px;&quot;&gt;27120&lt;/font&gt;" style="text;html=1;strokeColor=none;fillColor=none;align=left;verticalAlign=middle;whiteSpace=wrap;rounded=0;" vertex="1" parent="1">
          <mxGeometry x="760" y="760" width="60" height="30" as="geometry" />
        </mxCell>
        <mxCell id="ekhMy3ZcBeFL5dOao0uK-114" value="&lt;span style=&quot;font-size: 24px;&quot;&gt;23&lt;/span&gt;" style="text;html=1;strokeColor=none;fillColor=none;align=center;verticalAlign=middle;whiteSpace=wrap;rounded=0;" vertex="1" parent="1">
          <mxGeometry x="760" y="710" width="40" height="40" as="geometry" />
        </mxCell>
      </root>
    </mxGraphModel>
  </diagram>
</mxfile>
